<svg width="30" height="30" viewBox="0 0 30 30" fill="none" xmlns="http://www.w3.org/2000/svg">
<path d="M11.4625 15.8875L16.7625 21.1875C16.8787 21.3047 17.017 21.3977 17.1693 21.4611C17.3216 21.5246 17.485 21.5573 17.65 21.5573C17.815 21.5573 17.9784 21.5246 18.1307 21.4611C18.2831 21.3977 18.4213 21.3047 18.5375 21.1875C18.7703 20.9533 18.901 20.6365 18.901 20.3063C18.901 19.976 18.7703 19.6592 18.5375 19.425L14.1125 15L18.5375 10.575C18.7703 10.3408 18.901 10.024 18.901 9.69375C18.901 9.36352 18.7703 9.04671 18.5375 8.8125C18.4207 8.69665 18.2822 8.60499 18.1299 8.54279C17.9776 8.48058 17.8145 8.44905 17.65 8.45C17.4855 8.44905 17.3224 8.48058 17.1701 8.54279C17.0178 8.60499 16.8793 8.69665 16.7625 8.8125L11.4625 14.1125C11.3453 14.2287 11.2524 14.367 11.1889 14.5193C11.1254 14.6716 11.0928 14.835 11.0928 15C11.0928 15.165 11.1254 15.3284 11.1889 15.4807C11.2524 15.633 11.3453 15.7713 11.4625 15.8875Z" fill="#4B76F5"/>
</svg>
