<svg width="30" height="30" viewBox="0 0 30 30" fill="none" xmlns="http://www.w3.org/2000/svg">
<path d="M18.5375 14.1125L13.2375 8.8125C13.1213 8.69534 12.983 8.60234 12.8307 8.53888C12.6784 8.47542 12.515 8.44275 12.35 8.44275C12.185 8.44275 12.0216 8.47542 11.8693 8.53888C11.7169 8.60234 11.5787 8.69534 11.4625 8.8125C11.2297 9.0467 11.099 9.36351 11.099 9.69375C11.099 10.024 11.2297 10.3408 11.4625 10.575L15.8875 15L11.4625 19.425C11.2297 19.6592 11.099 19.976 11.099 20.3062C11.099 20.6365 11.2297 20.9533 11.4625 21.1875C11.5793 21.3033 11.7178 21.395 11.8701 21.4572C12.0224 21.5194 12.1855 21.5509 12.35 21.55C12.5145 21.5509 12.6776 21.5194 12.8299 21.4572C12.9822 21.395 13.1207 21.3033 13.2375 21.1875L18.5375 15.8875C18.6547 15.7713 18.7476 15.633 18.8111 15.4807C18.8746 15.3284 18.9072 15.165 18.9072 15C18.9072 14.835 18.8746 14.6716 18.8111 14.5193C18.7476 14.367 18.6547 14.2287 18.5375 14.1125Z" fill="#4B76F5"/>
</svg>
