<svg width="20" height="20" viewBox="0 0 20 20" fill="none" xmlns="http://www.w3.org/2000/svg">
<path d="M9.99999 15.8333C10.1648 15.8333 10.3259 15.7845 10.463 15.6929C10.6 15.6013 10.7068 15.4712 10.7699 15.3189C10.833 15.1666 10.8495 14.9991 10.8173 14.8374C10.7852 14.6758 10.7058 14.5273 10.5892 14.4108C10.4727 14.2942 10.3242 14.2148 10.1626 14.1827C10.0009 14.1505 9.83336 14.167 9.68109 14.2301C9.52882 14.2932 9.39867 14.4 9.3071 14.537C9.21553 14.6741 9.16666 14.8352 9.16666 15C9.16666 15.221 9.25445 15.433 9.41073 15.5893C9.56702 15.7455 9.77898 15.8333 9.99999 15.8333ZM14.1667 15.8333C14.3315 15.8333 14.4926 15.7845 14.6296 15.6929C14.7667 15.6013 14.8735 15.4712 14.9366 15.3189C14.9996 15.1666 15.0161 14.9991 14.984 14.8374C14.9518 14.6758 14.8725 14.5273 14.7559 14.4108C14.6394 14.2942 14.4909 14.2148 14.3292 14.1827C14.1676 14.1505 14 14.167 13.8478 14.2301C13.6955 14.2932 13.5653 14.4 13.4738 14.537C13.3822 14.6741 13.3333 14.8352 13.3333 15C13.3333 15.221 13.4211 15.433 13.5774 15.5893C13.7337 15.7455 13.9456 15.8333 14.1667 15.8333ZM14.1667 12.5C14.3315 12.5 14.4926 12.4511 14.6296 12.3596C14.7667 12.268 14.8735 12.1379 14.9366 11.9856C14.9996 11.8333 15.0161 11.6658 14.984 11.5041C14.9518 11.3425 14.8725 11.194 14.7559 11.0774C14.6394 10.9609 14.4909 10.8815 14.3292 10.8494C14.1676 10.8172 14 10.8337 13.8478 10.8968C13.6955 10.9598 13.5653 11.0667 13.4738 11.2037C13.3822 11.3407 13.3333 11.5019 13.3333 11.6667C13.3333 11.8877 13.4211 12.0997 13.5774 12.2559C13.7337 12.4122 13.9456 12.5 14.1667 12.5ZM9.99999 12.5C10.1648 12.5 10.3259 12.4511 10.463 12.3596C10.6 12.268 10.7068 12.1379 10.7699 11.9856C10.833 11.8333 10.8495 11.6658 10.8173 11.5041C10.7852 11.3425 10.7058 11.194 10.5892 11.0774C10.4727 10.9609 10.3242 10.8815 10.1626 10.8494C10.0009 10.8172 9.83336 10.8337 9.68109 10.8968C9.52882 10.9598 9.39867 11.0667 9.3071 11.2037C9.21553 11.3407 9.16666 11.5019 9.16666 11.6667C9.16666 11.8877 9.25445 12.0997 9.41073 12.2559C9.56702 12.4122 9.77898 12.5 9.99999 12.5ZM15.8333 2.50001H15V1.66668C15 1.44566 14.9122 1.2337 14.7559 1.07742C14.5996 0.921141 14.3877 0.833344 14.1667 0.833344C13.9456 0.833344 13.7337 0.921141 13.5774 1.07742C13.4211 1.2337 13.3333 1.44566 13.3333 1.66668V2.50001H6.66666V1.66668C6.66666 1.44566 6.57886 1.2337 6.42258 1.07742C6.2663 0.921141 6.05434 0.833344 5.83332 0.833344C5.61231 0.833344 5.40035 0.921141 5.24407 1.07742C5.08779 1.2337 4.99999 1.44566 4.99999 1.66668V2.50001H4.16666C3.50362 2.50001 2.86773 2.7634 2.39889 3.23224C1.93005 3.70108 1.66666 4.33697 1.66666 5.00001V16.6667C1.66666 17.3297 1.93005 17.9656 2.39889 18.4344C2.86773 18.9033 3.50362 19.1667 4.16666 19.1667H15.8333C16.4964 19.1667 17.1322 18.9033 17.6011 18.4344C18.0699 17.9656 18.3333 17.3297 18.3333 16.6667V5.00001C18.3333 4.33697 18.0699 3.70108 17.6011 3.23224C17.1322 2.7634 16.4964 2.50001 15.8333 2.50001ZM16.6667 16.6667C16.6667 16.8877 16.5789 17.0997 16.4226 17.2559C16.2663 17.4122 16.0543 17.5 15.8333 17.5H4.16666C3.94564 17.5 3.73368 17.4122 3.5774 17.2559C3.42112 17.0997 3.33332 16.8877 3.33332 16.6667V9.16668H16.6667V16.6667ZM16.6667 7.50001H3.33332V5.00001C3.33332 4.779 3.42112 4.56703 3.5774 4.41075C3.73368 4.25447 3.94564 4.16668 4.16666 4.16668H4.99999V5.00001C4.99999 5.22102 5.08779 5.43298 5.24407 5.58927C5.40035 5.74555 5.61231 5.83334 5.83332 5.83334C6.05434 5.83334 6.2663 5.74555 6.42258 5.58927C6.57886 5.43298 6.66666 5.22102 6.66666 5.00001V4.16668H13.3333V5.00001C13.3333 5.22102 13.4211 5.43298 13.5774 5.58927C13.7337 5.74555 13.9456 5.83334 14.1667 5.83334C14.3877 5.83334 14.5996 5.74555 14.7559 5.58927C14.9122 5.43298 15 5.22102 15 5.00001V4.16668H15.8333C16.0543 4.16668 16.2663 4.25447 16.4226 4.41075C16.5789 4.56703 16.6667 4.779 16.6667 5.00001V7.50001ZM5.83332 12.5C5.99814 12.5 6.15926 12.4511 6.2963 12.3596C6.43334 12.268 6.54015 12.1379 6.60322 11.9856C6.6663 11.8333 6.6828 11.6658 6.65064 11.5041C6.61849 11.3425 6.53912 11.194 6.42258 11.0774C6.30604 10.9609 6.15755 10.8815 5.9959 10.8494C5.83425 10.8172 5.66669 10.8337 5.51442 10.8968C5.36215 10.9598 5.232 11.0667 5.14043 11.2037C5.04886 11.3407 4.99999 11.5019 4.99999 11.6667C4.99999 11.8877 5.08779 12.0997 5.24407 12.2559C5.40035 12.4122 5.61231 12.5 5.83332 12.5ZM5.83332 15.8333C5.99814 15.8333 6.15926 15.7845 6.2963 15.6929C6.43334 15.6013 6.54015 15.4712 6.60322 15.3189C6.6663 15.1666 6.6828 14.9991 6.65064 14.8374C6.61849 14.6758 6.53912 14.5273 6.42258 14.4108C6.30604 14.2942 6.15755 14.2148 5.9959 14.1827C5.83425 14.1505 5.66669 14.167 5.51442 14.2301C5.36215 14.2932 5.232 14.4 5.14043 14.537C5.04886 14.6741 4.99999 14.8352 4.99999 15C4.99999 15.221 5.08779 15.433 5.24407 15.5893C5.40035 15.7455 5.61231 15.8333 5.83332 15.8333Z" fill="#4B76F5"/>
</svg>
