<svg width="20" height="20" viewBox="0 0 20 20" fill="none" xmlns="http://www.w3.org/2000/svg">
<path d="M15.8334 5.41668H14.7667L14.5 4.58334C14.3271 4.09437 14.0065 3.67126 13.5824 3.37264C13.1584 3.07402 12.652 2.91468 12.1334 2.91668H7.86669C7.34298 2.91765 6.8328 3.08308 6.40816 3.3896C5.98352 3.69611 5.66586 4.12825 5.50002 4.62501L5.23335 5.45834H4.16669C3.50365 5.45834 2.86776 5.72173 2.39892 6.19057C1.93008 6.65942 1.66669 7.2953 1.66669 7.95834V14.625C1.66669 15.288 1.93008 15.9239 2.39892 16.3928C2.86776 16.8616 3.50365 17.125 4.16669 17.125H15.8334C16.4964 17.125 17.1323 16.8616 17.6011 16.3928C18.07 15.9239 18.3334 15.288 18.3334 14.625V7.95834C18.3389 7.62655 18.2783 7.29697 18.1551 6.98883C18.032 6.68069 17.8487 6.40016 17.616 6.16358C17.3833 5.927 17.1058 5.73912 16.7998 5.61088C16.4937 5.48265 16.1652 5.41663 15.8334 5.41668ZM16.6667 14.5833C16.6667 14.8044 16.5789 15.0163 16.4226 15.1726C16.2663 15.3289 16.0544 15.4167 15.8334 15.4167H4.16669C3.94567 15.4167 3.73371 15.3289 3.57743 15.1726C3.42115 15.0163 3.33335 14.8044 3.33335 14.5833V7.91668C3.33335 7.69566 3.42115 7.4837 3.57743 7.32742C3.73371 7.17114 3.94567 7.08334 4.16669 7.08334H5.83335C6.01508 7.09283 6.19491 7.04257 6.34538 6.94025C6.49586 6.83792 6.6087 6.68916 6.66669 6.51668L7.11669 5.15001C7.17259 4.98449 7.2791 4.84073 7.42116 4.73904C7.56322 4.63736 7.73365 4.58289 7.90835 4.58334H12.175C12.3497 4.58289 12.5201 4.63736 12.6622 4.73904C12.8043 4.84073 12.9108 4.98449 12.9667 5.15001L13.4167 6.51668C13.4702 6.67563 13.5704 6.81475 13.7042 6.91585C13.838 7.01695 13.9992 7.07533 14.1667 7.08334H15.8334C16.0544 7.08334 16.2663 7.17114 16.4226 7.32742C16.5789 7.4837 16.6667 7.69566 16.6667 7.91668V14.5833ZM10 7.08334C9.34075 7.08334 8.69628 7.27884 8.14812 7.64511C7.59996 8.01138 7.17271 8.53198 6.92042 9.14106C6.66813 9.75015 6.60212 10.4204 6.73074 11.067C6.85935 11.7136 7.17682 12.3075 7.643 12.7737C8.10917 13.2399 8.70312 13.5573 9.34972 13.686C9.99632 13.8146 10.6665 13.7486 11.2756 13.4963C11.8847 13.244 12.4053 12.8167 12.7716 12.2686C13.1379 11.7204 13.3334 11.0759 13.3334 10.4167C13.3334 9.53262 12.9822 8.68477 12.357 8.05965C11.7319 7.43453 10.8841 7.08334 10 7.08334ZM10 12.0833C9.67038 12.0833 9.34815 11.9856 9.07407 11.8025C8.79999 11.6193 8.58637 11.359 8.46022 11.0545C8.33407 10.7499 8.30107 10.4148 8.36538 10.0915C8.42969 9.76822 8.58842 9.47125 8.82151 9.23816C9.0546 9.00508 9.35157 8.84634 9.67487 8.78203C9.99817 8.71772 10.3333 8.75073 10.6378 8.87688C10.9424 9.00302 11.2027 9.21664 11.3858 9.49073C11.5689 9.76481 11.6667 10.087 11.6667 10.4167C11.6667 10.8587 11.4911 11.2826 11.1785 11.5952C10.866 11.9077 10.442 12.0833 10 12.0833Z" fill="white"/>
</svg>
